<svg id="Layer_1" data-name="Layer 1" xmlns="http://www.w3.org/2000/svg" viewBox="0 0 599.01 196.13"><defs><style>.cls-1{fill:#2bb370;}</style></defs><title>eee</title><path class="cls-1" d="M176.65,67.57V42.27a8.35,8.35,0,0,0-5.7-7.92L113.19,15a8.36,8.36,0,0,0-5.31,0L50.1,34.35a8.35,8.35,0,0,0-5.7,7.92v131a8.35,8.35,0,0,0,11,7.92l55.11-18.49,55.11,18.49a8.35,8.35,0,0,0,11-7.92V103.89A8.35,8.35,0,0,0,171,96L118.88,78.5v-44l41.06,13.78V62.07ZM102.18,34.5v44L61.11,92.27v-44Zm57.77,127.12-41.06-13.78V134.06H102.18v13.78L61.11,161.62V109.89l49.42-16.58,49.42,16.58Z"/><path d="M282.81,113.33H251.88a8.58,8.58,0,0,1-8.58-8.58V43.08a8.58,8.58,0,0,1,8.58-8.58h30.93a8.58,8.58,0,0,1,8.58,8.58V66.84a8.58,8.58,0,0,1-8.58,8.58H251.6v29.33a.28.28,0,0,0,.28.28h30.93a.28.28,0,0,0,.28-.28V96.13a1.66,1.66,0,0,1,1.66-1.66h5a1.66,1.66,0,0,1,1.66,1.66v8.62A8.58,8.58,0,0,1,282.81,113.33ZM251.6,67.11h31.21a.28.28,0,0,0,.28-.28V43.08a.28.28,0,0,0-.28-.28H251.88a.28.28,0,0,0-.28.28Z"/><path d="M417.67,114H386.73a8.58,8.58,0,0,1-8.58-8.58V43.78a8.58,8.58,0,0,1,8.58-8.58h30.94a8.58,8.58,0,0,1,8.58,8.58V67.53a8.58,8.58,0,0,1-8.58,8.58H386.45v29.33a.28.28,0,0,0,.28.28h30.94a.28.28,0,0,0,.28-.28V96.82a1.66,1.66,0,0,1,1.66-1.66h5a1.66,1.66,0,0,1,1.66,1.66v8.62A8.58,8.58,0,0,1,417.67,114ZM386.45,67.81h31.21a.28.28,0,0,0,.28-.28V43.78a.28.28,0,0,0-.28-.28H386.73a.28.28,0,0,0-.28.28Z"/><path d="M444,114.16h-5a1.66,1.66,0,0,1-1.66-1.66V43.08a8.58,8.58,0,0,1,8.58-8.58h30.93a8.58,8.58,0,0,1,8.58,8.58V66.84a8.58,8.58,0,0,1-8.58,8.58H445.67v37.08A1.66,1.66,0,0,1,444,114.16Zm1.66-47h31.21a.28.28,0,0,0,.28-.28V43.08a.28.28,0,0,0-.28-.28H445.95a.28.28,0,0,0-.28.28Z"/><path d="M264.18,137.09l-1.5.89a1.67,1.67,0,0,1-2.21-.43,5.42,5.42,0,0,0-1.54-1.53,5.47,5.47,0,0,0-3-.74,5.54,5.54,0,0,0-3.74,1.28,4,4,0,0,0-1.49,3.16q0,2.63,3.9,4.23l3.58,1.46a15.28,15.28,0,0,1,6.39,4.31,9.71,9.71,0,0,1,2,6.24,11,11,0,0,1-3.3,8.18,11.32,11.32,0,0,1-8.25,3.25,11,11,0,0,1-7.71-2.76,11.92,11.92,0,0,1-3.41-6.08,1.67,1.67,0,0,1,1.25-2.05l2.18-.48a1.67,1.67,0,0,1,2,1.31,6.71,6.71,0,0,0,1,2.68,6.18,6.18,0,0,0,9.08.63,5.87,5.87,0,0,0,1.67-4.3,6,6,0,0,0-.29-1.92,4.86,4.86,0,0,0-.91-1.6,7.24,7.24,0,0,0-1.59-1.37,15.33,15.33,0,0,0-2.32-1.22l-3.46-1.44q-7.36-3.11-7.36-9.11a8.64,8.64,0,0,1,3.09-6.76,11.16,11.16,0,0,1,7.69-2.74,10.32,10.32,0,0,1,8.68,4.5A1.67,1.67,0,0,1,264.18,137.09Z"/><path d="M306.22,151.24l-10.28-17.89a1.66,1.66,0,0,1,1.44-2.49h2.39a1.66,1.66,0,0,1,1.44.84l7.72,13.5,7.75-13.5a1.66,1.66,0,0,1,1.44-.83h2.39a1.66,1.66,0,0,1,1.44,2.49l-10.32,17.88v13.84a1.66,1.66,0,0,1-1.66,1.66h-2.09a1.66,1.66,0,0,1-1.66-1.66Z"/><path d="M371.4,137.09l-1.5.89a1.67,1.67,0,0,1-2.21-.43,5.42,5.42,0,0,0-1.54-1.53,5.47,5.47,0,0,0-3-.74,5.54,5.54,0,0,0-3.74,1.28,4,4,0,0,0-1.49,3.16q0,2.63,3.9,4.23l3.58,1.46a15.28,15.28,0,0,1,6.39,4.31,9.71,9.71,0,0,1,2,6.24,11,11,0,0,1-3.3,8.18,11.32,11.32,0,0,1-8.25,3.25,11,11,0,0,1-7.71-2.76,11.92,11.92,0,0,1-3.41-6.08,1.67,1.67,0,0,1,1.25-2.05l2.18-.48a1.67,1.67,0,0,1,2,1.31,6.71,6.71,0,0,0,1,2.68,6.18,6.18,0,0,0,9.08.63,5.87,5.87,0,0,0,1.67-4.3,6,6,0,0,0-.29-1.92,4.86,4.86,0,0,0-.91-1.6,7.24,7.24,0,0,0-1.59-1.37,15.33,15.33,0,0,0-2.32-1.22l-3.46-1.44q-7.36-3.11-7.36-9.11a8.64,8.64,0,0,1,3.09-6.76,11.16,11.16,0,0,1,7.69-2.74,10.32,10.32,0,0,1,8.68,4.5A1.67,1.67,0,0,1,371.4,137.09Z"/><path d="M417.09,135.95v29.12a1.66,1.66,0,0,1-1.66,1.66h-2.09a1.66,1.66,0,0,1-1.66-1.66V135.95h-6.59a1.66,1.66,0,0,1-1.66-1.66v-1.77a1.66,1.66,0,0,1,1.66-1.66h18.56a1.66,1.66,0,0,1,1.66,1.66v1.77a1.66,1.66,0,0,1-1.66,1.66Z"/><path d="M474.45,135.95H461.73v8.62H474a1.66,1.66,0,0,1,1.66,1.66V148a1.66,1.66,0,0,1-1.66,1.66h-12.3v12h12.72a1.66,1.66,0,0,1,1.66,1.66v1.77a1.66,1.66,0,0,1-1.66,1.66H458a1.66,1.66,0,0,1-1.66-1.66V132.52a1.66,1.66,0,0,1,1.66-1.66h16.47a1.66,1.66,0,0,1,1.66,1.66v1.77A1.66,1.66,0,0,1,474.45,135.95Z"/><path d="M508.52,164.75l6.15-31.4a1.66,1.66,0,0,1,3.15-.35L528,156l10.53-23a1.66,1.66,0,0,1,3.15.4l5.52,31.36a1.66,1.66,0,0,1-1.64,1.95H543.4a1.66,1.66,0,0,1-1.64-1.4l-3.24-20.25L529.44,165a1.66,1.66,0,0,1-3,0l-8.82-19.94L514,165.36a1.66,1.66,0,0,1-1.64,1.37h-2.19A1.66,1.66,0,0,1,508.52,164.75Z"/><path d="M356.24,35.2a1.66,1.66,0,0,0-1.57,1.12l-24,70c0,.07-.08.12-.23.12s-.2,0-.23-.12l-23.11-70a1.66,1.66,0,0,0-1.58-1.14h-5.25a1.66,1.66,0,0,0-1.58,2.18l23.67,71.69.06.18a8.57,8.57,0,0,0,16,0l0-.09L363.08,37.4a1.66,1.66,0,0,0-1.57-2.2Z"/><path d="M545.47,35.2l-26,36.34,6.81,4.76,28-39.16a1.66,1.66,0,0,0-1.35-2.63h-6.13A1.66,1.66,0,0,0,545.47,35.2Z"/><path d="M490.72,111.55l-29.8-43-6.82,4.74,27.83,40.16a1.66,1.66,0,0,0,1.37.71h6.06A1.66,1.66,0,0,0,490.72,111.55Z"/><path d="M518.73,75.22v37.27a1.66,1.66,0,0,0,1.66,1.66h5a1.66,1.66,0,0,0,1.66-1.66V72.61l-26.44-37.4a1.66,1.66,0,0,0-1.36-.7h-6.1a1.66,1.66,0,0,0-1.36,2.62Z"/></svg>